<?xml version="1.0" encoding="UTF-8" standalone="no"?>
<!-- Created with Inkscape (http://www.inkscape.org/) -->

<svg
   xmlns:dc="http://purl.org/dc/elements/1.1/"
   xmlns:cc="http://creativecommons.org/ns#"
   xmlns:rdf="http://www.w3.org/1999/02/22-rdf-syntax-ns#"
   xmlns:svg="http://www.w3.org/2000/svg"
   xmlns="http://www.w3.org/2000/svg"
   xmlns:sodipodi="http://sodipodi.sourceforge.net/DTD/sodipodi-0.dtd"
   xmlns:inkscape="http://www.inkscape.org/namespaces/inkscape"
   width="98.679489"
   height="26.777617"
   id="svg3180"
   version="1.1"
   inkscape:version="0.48.3.1 r9886"
   sodipodi:docname="logo.svg"
   inkscape:export-filename="/home/jj/projects/paragraph/paragraph_highres.png"
   inkscape:export-xdpi="911.13159"
   inkscape:export-ydpi="911.13159">
  <defs
     id="defs3182" />
  <sodipodi:namedview
     id="base"
     pagecolor="#ffffff"
     bordercolor="#666666"
     borderopacity="1.0"
     inkscape:pageopacity="0"
     inkscape:pageshadow="2"
     inkscape:zoom="2.8284271"
     inkscape:cx="84.679505"
     inkscape:cy="-8.22908"
     inkscape:document-units="px"
     inkscape:current-layer="layer1"
     showgrid="false"
     fit-margin-top="1"
     fit-margin-left="1"
     fit-margin-right="1"
     fit-margin-bottom="1"
     inkscape:window-width="1024"
     inkscape:window-height="598"
     inkscape:window-x="0"
     inkscape:window-y="0"
     inkscape:window-maximized="0" />
  <metadata
     id="metadata3185">
    <rdf:RDF>
      <cc:Work
         rdf:about="">
        <dc:format>image/svg+xml</dc:format>
        <dc:type
           rdf:resource="http://purl.org/dc/dcmitype/StillImage" />
        <dc:title></dc:title>
      </cc:Work>
    </rdf:RDF>
  </metadata>
  <g
     inkscape:label="Layer 1"
     inkscape:groupmode="layer"
     id="layer1"
     transform="translate(-67.110721,-55.461124)">
    <g
       id="g3791">
      <path
         d="m 87.135713,75.980148 -0.395464,-1.624605 -0.08551,0 c -0.235148,0.320647 -0.470288,0.59854 -0.705421,0.833679 -0.235148,0.228015 -0.491664,0.41684 -0.76955,0.566474 -0.2779,0.149635 -0.587857,0.26008 -0.929873,0.331334 -0.342028,0.07126 -0.737491,0.106882 -1.18639,0.106882 -0.491661,0 -0.944128,-0.07125 -1.357401,-0.213764 -0.41328,-0.135383 -0.773115,-0.345584 -1.079508,-0.630603 -0.299271,-0.292143 -0.534411,-0.655542 -0.705421,-1.090196 -0.171012,-0.441777 -0.256517,-0.961935 -0.256516,-1.560477 -10e-7,-1.168571 0.409712,-2.066379 1.229142,-2.693425 0.826551,-0.627034 2.080631,-0.969056 3.762245,-1.026067 l 1.966628,-0.07482 0,-0.737486 c -8e-6,-0.477398 -0.05345,-0.876423 -0.160323,-1.197078 -0.09976,-0.320636 -0.249399,-0.577153 -0.448904,-0.76955 -0.192395,-0.199503 -0.43466,-0.342012 -0.726797,-0.427528 -0.285025,-0.08549 -0.612796,-0.128248 -0.983314,-0.128258 -0.591419,1e-5 -1.143642,0.08552 -1.656671,0.256517 -0.505911,0.171021 -0.994005,0.377659 -1.464283,0.619915 l -0.684044,-1.464283 c 0.527282,-0.285007 1.115132,-0.527273 1.763552,-0.726797 0.648413,-0.199501 1.328894,-0.299258 2.041446,-0.29927 0.726791,1.2e-5 1.353831,0.07483 1.881122,0.224452 0.534402,0.142521 0.972617,0.374099 1.314648,0.694733 0.349139,0.313531 0.609218,0.71612 0.780238,1.207766 0.171002,0.491667 0.256507,1.086642 0.256517,1.784929 l 0,8.037523 -1.400153,0 M 83.56585,74.622744 c 0.434648,2e-6 0.837236,-0.06769 1.207766,-0.203075 0.370518,-0.135382 0.691163,-0.338458 0.961938,-0.609227 0.27076,-0.277891 0.480961,-0.623476 0.630603,-1.036755 0.156753,-0.420399 0.235133,-0.912056 0.235141,-1.474972 l 0,-1.058131 -1.528412,0.07482 c -0.641298,0.02851 -1.17927,0.09976 -1.613918,0.213764 -0.434658,0.114013 -0.783805,0.274336 -1.047443,0.480969 -0.25652,0.199518 -0.441782,0.445346 -0.555786,0.737486 -0.114011,0.285022 -0.171014,0.609231 -0.171011,0.972626 -3e-6,0.655545 0.171008,1.136513 0.513033,1.442906 0.349144,0.306396 0.805173,0.459594 1.368089,0.459592"
         style="font-size:21.88942528px;font-style:normal;font-variant:normal;font-weight:normal;font-stretch:normal;text-align:start;line-height:125%;letter-spacing:-0.15200989px;word-spacing:0px;writing-mode:lr-tb;text-anchor:start;fill:#4d4d4d;fill-opacity:1;stroke:none;font-family:Droid Sans;-inkscape-font-specification:Droid Sans"
         id="path3766"
         inkscape:connector-curvature="0" />
      <path
         d="m 97.07336,64.030745 c 0.206631,1.2e-5 0.438208,0.0107 0.694733,0.03207 0.256508,0.01426 0.477398,0.0392 0.662668,0.07482 l -0.256517,1.795617 c -0.199521,-0.03562 -0.406159,-0.06412 -0.619915,-0.0855 -0.206646,-0.02849 -0.402596,-0.04274 -0.587851,-0.04275 -0.448911,1e-5 -0.858625,0.09264 -1.229143,0.277893 -0.370529,0.178146 -0.691175,0.438225 -0.961937,0.780238 -0.263647,0.334906 -0.470285,0.741057 -0.619916,1.218455 -0.142513,0.470288 -0.213767,0.994009 -0.213764,1.571164 l 0,6.327412 -1.945251,0 0,-11.735639 1.581853,0 0.23514,2.148328 0.08551,0 c 0.178132,-0.306385 0.366957,-0.602092 0.566474,-0.887121 0.206634,-0.285008 0.434649,-0.534398 0.684045,-0.748173 0.256511,-0.220878 0.541529,-0.395452 0.855055,-0.523722 0.313514,-0.135372 0.669787,-0.203064 1.06882,-0.203076"
         style="font-size:21.88942528px;font-style:normal;font-variant:normal;font-weight:normal;font-stretch:normal;text-align:start;line-height:125%;letter-spacing:-0.15200989px;word-spacing:0px;writing-mode:lr-tb;text-anchor:start;fill:#4d4d4d;fill-opacity:1;stroke:none;font-family:Droid Sans;-inkscape-font-specification:Droid Sans"
         id="path3768"
         inkscape:connector-curvature="0" />
      <path
         d="m 106.96825,75.980148 -0.39546,-1.624605 -0.0855,0 c -0.23515,0.320647 -0.47029,0.59854 -0.70542,0.833679 -0.23515,0.228015 -0.49167,0.41684 -0.76955,0.566474 -0.2779,0.149635 -0.58786,0.26008 -0.92988,0.331334 -0.34203,0.07126 -0.73749,0.106882 -1.18639,0.106882 -0.49166,0 -0.94413,-0.07125 -1.3574,-0.213764 -0.41328,-0.135383 -0.77311,-0.345584 -1.07951,-0.630603 -0.29927,-0.292143 -0.534408,-0.655542 -0.705417,-1.090196 -0.171013,-0.441777 -0.256518,-0.961935 -0.256517,-1.560477 -1e-6,-1.168571 0.409713,-2.066379 1.229144,-2.693425 0.82655,-0.627034 2.08063,-0.969056 3.76224,-1.026067 l 1.96663,-0.07482 0,-0.737486 c -1e-5,-0.477398 -0.0534,-0.876423 -0.16032,-1.197078 -0.0998,-0.320636 -0.2494,-0.577153 -0.44891,-0.76955 -0.19239,-0.199503 -0.43466,-0.342012 -0.72679,-0.427528 -0.28503,-0.08549 -0.6128,-0.128248 -0.98332,-0.128258 -0.59142,1e-5 -1.14364,0.08552 -1.65667,0.256517 -0.50591,0.171021 -0.994,0.377659 -1.46428,0.619915 l -0.68404,-1.464283 c 0.52728,-0.285007 1.11513,-0.527273 1.76355,-0.726797 0.64841,-0.199501 1.32889,-0.299258 2.04144,-0.29927 0.72679,1.2e-5 1.35383,0.07483 1.88113,0.224452 0.5344,0.142521 0.97261,0.374099 1.31464,0.694733 0.34914,0.313531 0.60922,0.71612 0.78024,1.207766 0.171,0.491667 0.25651,1.086642 0.25652,1.784929 l 0,8.037523 -1.40016,0 m -3.56985,-1.357401 c 0.43465,2e-6 0.83723,-0.06769 1.20776,-0.203075 0.37052,-0.135382 0.69117,-0.338458 0.96194,-0.609227 0.27076,-0.277891 0.48096,-0.623476 0.6306,-1.036755 0.15676,-0.420399 0.23514,-0.912056 0.23515,-1.474972 l 0,-1.058131 -1.52842,0.07482 c -0.64129,0.02851 -1.17927,0.09976 -1.61391,0.213764 -0.43466,0.114013 -0.78381,0.274336 -1.04745,0.480969 -0.25652,0.199518 -0.44178,0.445346 -0.55578,0.737486 -0.11401,0.285022 -0.17102,0.609231 -0.17101,0.972626 -1e-5,0.655545 0.171,1.136513 0.51303,1.442906 0.34914,0.306396 0.80517,0.459594 1.36809,0.459592"
         style="font-size:21.88942528px;font-style:normal;font-variant:normal;font-weight:normal;font-stretch:normal;text-align:start;line-height:125%;letter-spacing:-0.15200989px;word-spacing:0px;writing-mode:lr-tb;text-anchor:start;fill:#4d4d4d;fill-opacity:1;stroke:none;font-family:Droid Sans;-inkscape-font-specification:Droid Sans"
         id="path3770"
         inkscape:connector-curvature="0" />
      <path
         d="m 120.87122,64.244509 0,1.207766 -2.10557,0.288582 c 0.1995,0.249401 0.36695,0.570046 0.50234,0.961937 0.13538,0.384784 0.20307,0.823 0.20308,1.314648 -1e-5,0.541543 -0.0855,1.043888 -0.25652,1.507036 -0.16389,0.456036 -0.41685,0.851499 -0.75886,1.18639 -0.3349,0.334901 -0.75174,0.598543 -1.25052,0.790926 -0.49879,0.185267 -1.07951,0.277898 -1.74217,0.277893 -0.15677,5e-6 -0.31353,5e-6 -0.47028,0 -0.15677,-0.0071 -0.28503,-0.02137 -0.38478,-0.04275 -0.12114,0.07126 -0.24227,0.153201 -0.3634,0.245828 -0.11401,0.08551 -0.22089,0.185266 -0.32064,0.29927 -0.0926,0.114011 -0.17102,0.242269 -0.23514,0.384775 -0.057,0.142512 -0.0855,0.299272 -0.0855,0.47028 0,0.19239 0.0427,0.34915 0.12826,0.470281 0.0855,0.114009 0.19951,0.203078 0.34202,0.267205 0.14963,0.06413 0.3242,0.106884 0.52372,0.128258 0.19951,0.02138 0.40971,0.03207 0.63061,0.03207 l 1.88112,0 c 0.66266,2e-6 1.22201,0.08551 1.67804,0.256516 0.45603,0.163888 0.82655,0.388339 1.11158,0.673357 0.29213,0.285019 0.50233,0.623478 0.6306,1.015378 0.12825,0.384775 0.19238,0.794489 0.19239,1.229143 -10e-6,0.627039 -0.11758,1.18995 -0.35271,1.688735 -0.22803,0.498779 -0.58074,0.919181 -1.05813,1.261207 -0.47742,0.349143 -1.08308,0.616348 -1.817,0.801615 -0.7268,0.185257 -1.58542,0.277887 -2.57585,0.277893 -0.76243,-6e-6 -1.42866,-0.07482 -1.99869,-0.224452 -0.57004,-0.14964 -1.04389,-0.366966 -1.42153,-0.65198 -0.37766,-0.285023 -0.66267,-0.630608 -0.85506,-1.036755 -0.18526,-0.399029 -0.27789,-0.851496 -0.27789,-1.357401 0,-0.42753 0.0677,-0.805179 0.20307,-1.132949 0.14251,-0.320646 0.33134,-0.598539 0.56648,-0.833679 0.23514,-0.23514 0.5059,-0.427528 0.8123,-0.577163 0.31352,-0.149634 0.63773,-0.263641 0.97263,-0.342022 -0.29928,-0.135383 -0.54511,-0.349147 -0.73749,-0.641292 -0.19239,-0.292142 -0.28858,-0.627039 -0.28858,-1.00469 0,-0.434651 0.114,-0.808737 0.34202,-1.122261 0.22801,-0.320642 0.58785,-0.630599 1.07951,-0.929873 -0.3064,-0.128254 -0.58786,-0.302827 -0.84437,-0.523722 -0.24939,-0.228009 -0.46316,-0.484525 -0.64129,-0.76955 -0.17101,-0.292137 -0.3064,-0.60922 -0.40615,-0.951249 -0.0926,-0.342015 -0.13895,-0.694725 -0.13895,-1.058131 0,-0.634158 0.0891,-1.200632 0.26721,-1.699424 0.17813,-0.498772 0.44177,-0.922737 0.79092,-1.271895 0.34915,-0.349136 0.7838,-0.616341 1.30396,-0.801615 0.52016,-0.18525 1.12582,-0.277881 1.817,-0.277893 0.26363,1.2e-5 0.5344,0.02139 0.8123,0.06413 0.28501,0.03564 0.52371,0.08552 0.71611,0.149635 l 3.87981,0 m -8.66812,13.659515 c -10e-6,0.26364 0.0463,0.509468 0.13894,0.737485 0.0926,0.228012 0.24227,0.423962 0.44891,0.587851 0.21376,0.163882 0.49165,0.29214 0.83368,0.384775 0.34914,0.09975 0.78023,0.149631 1.29327,0.149635 1.32533,-4e-6 2.31577,-0.206642 2.97132,-0.619916 0.66266,-0.406154 0.99399,-0.994004 0.994,-1.763552 -1e-5,-0.327772 -0.0428,-0.594977 -0.12826,-0.801615 -0.0855,-0.206639 -0.22802,-0.370524 -0.42753,-0.491657 -0.19239,-0.114007 -0.44891,-0.192387 -0.76955,-0.23514 -0.32065,-0.04275 -0.71255,-0.06413 -1.1757,-0.06413 l -1.88112,0 c -0.2494,0 -0.50948,0.0285 -0.78024,0.0855 -0.27077,0.057 -0.52016,0.163886 -0.74817,0.320646 -0.2209,0.15676 -0.40616,0.370524 -0.55579,0.641292 -0.14251,0.277892 -0.21377,0.634165 -0.21376,1.06882 m 0.98331,-9.886582 c 0,0.819436 0.19238,1.428662 0.57716,1.827682 0.38477,0.399032 0.92987,0.598544 1.6353,0.598539 0.71254,5e-6 1.25051,-0.195945 1.61391,-0.587851 0.37052,-0.399019 0.55578,-1.022497 0.55579,-1.870434 -1e-5,-0.876423 -0.18883,-1.521277 -0.56647,-1.934564 -0.37053,-0.413266 -0.91207,-0.619905 -1.62461,-0.619915 -0.70543,10e-6 -1.24696,0.213774 -1.62461,0.641292 -0.37765,0.427537 -0.56647,1.075954 -0.56647,1.945251"
         style="font-size:21.88942528px;font-style:normal;font-variant:normal;font-weight:normal;font-stretch:normal;text-align:start;line-height:125%;letter-spacing:-0.15200989px;word-spacing:0px;writing-mode:lr-tb;text-anchor:start;fill:#4d4d4d;fill-opacity:1;stroke:none;font-family:Droid Sans;-inkscape-font-specification:Droid Sans"
         id="path3772"
         inkscape:connector-curvature="0" />
      <path
         d="m 128.08338,64.030745 c 0.20663,1.2e-5 0.43821,0.0107 0.69473,0.03207 0.25651,0.01426 0.4774,0.0392 0.66267,0.07482 l -0.25652,1.795617 c -0.19952,-0.03562 -0.40616,-0.06412 -0.61991,-0.0855 -0.20665,-0.02849 -0.4026,-0.04274 -0.58785,-0.04275 -0.44891,1e-5 -0.85863,0.09264 -1.22915,0.277893 -0.37052,0.178146 -0.69117,0.438225 -0.96193,0.780238 -0.26365,0.334906 -0.47029,0.741057 -0.61992,1.218455 -0.14251,0.470288 -0.21377,0.994009 -0.21376,1.571164 l 0,6.327412 -1.94525,0 0,-11.735639 1.58185,0 0.23514,2.148328 0.0855,0 c 0.17814,-0.306385 0.36696,-0.602092 0.56648,-0.887121 0.20663,-0.285008 0.43465,-0.534398 0.68404,-0.748173 0.25652,-0.220878 0.54153,-0.395452 0.85506,-0.523722 0.31351,-0.135372 0.66979,-0.203064 1.06882,-0.203076"
         style="font-size:21.88942528px;font-style:normal;font-variant:normal;font-weight:normal;font-stretch:normal;text-align:start;line-height:125%;letter-spacing:-0.15200989px;word-spacing:0px;writing-mode:lr-tb;text-anchor:start;fill:#4d4d4d;fill-opacity:1;stroke:none;font-family:Droid Sans;-inkscape-font-specification:Droid Sans"
         id="path3774"
         inkscape:connector-curvature="0" />
      <path
         d="m 137.97827,75.980148 -0.39546,-1.624605 -0.0855,0 c -0.23514,0.320647 -0.47028,0.59854 -0.70542,0.833679 -0.23514,0.228015 -0.49166,0.41684 -0.76955,0.566474 -0.2779,0.149635 -0.58785,0.26008 -0.92987,0.331334 -0.34203,0.07126 -0.73749,0.106882 -1.18639,0.106882 -0.49166,0 -0.94413,-0.07125 -1.3574,-0.213764 -0.41328,-0.135383 -0.77312,-0.345584 -1.07951,-0.630603 -0.29927,-0.292143 -0.53441,-0.655542 -0.70542,-1.090196 -0.17101,-0.441777 -0.25652,-0.961935 -0.25652,-1.560477 0,-1.168571 0.40972,-2.066379 1.22915,-2.693425 0.82655,-0.627034 2.08063,-0.969056 3.76224,-1.026067 l 1.96663,-0.07482 0,-0.737486 c -1e-5,-0.477398 -0.0534,-0.876423 -0.16032,-1.197078 -0.0998,-0.320636 -0.2494,-0.577153 -0.44891,-0.76955 -0.19239,-0.199503 -0.43466,-0.342012 -0.7268,-0.427528 -0.28502,-0.08549 -0.61279,-0.128248 -0.98331,-0.128258 -0.59142,1e-5 -1.14364,0.08552 -1.65667,0.256517 -0.50591,0.171021 -0.99401,0.377659 -1.46428,0.619915 l -0.68405,-1.464283 c 0.52728,-0.285007 1.11513,-0.527273 1.76355,-0.726797 0.64842,-0.199501 1.3289,-0.299258 2.04145,-0.29927 0.72679,1.2e-5 1.35383,0.07483 1.88112,0.224452 0.5344,0.142521 0.97262,0.374099 1.31465,0.694733 0.34914,0.313531 0.60922,0.71612 0.78024,1.207766 0.171,0.491667 0.25651,1.086642 0.25652,1.784929 l 0,8.037523 -1.40016,0 m -3.56986,-1.357401 c 0.43465,2e-6 0.83724,-0.06769 1.20777,-0.203075 0.37052,-0.135382 0.69116,-0.338458 0.96194,-0.609227 0.27076,-0.277891 0.48096,-0.623476 0.6306,-1.036755 0.15675,-0.420399 0.23513,-0.912056 0.23514,-1.474972 l 0,-1.058131 -1.52841,0.07482 c -0.6413,0.02851 -1.17927,0.09976 -1.61392,0.213764 -0.43465,0.114013 -0.7838,0.274336 -1.04744,0.480969 -0.25652,0.199518 -0.44178,0.445346 -0.55579,0.737486 -0.11401,0.285022 -0.17101,0.609231 -0.17101,0.972626 0,0.655545 0.17101,1.136513 0.51304,1.442906 0.34914,0.306396 0.80517,0.459594 1.36808,0.459592"
         style="font-size:21.88942528px;font-style:normal;font-variant:normal;font-weight:normal;font-stretch:normal;text-align:start;line-height:125%;letter-spacing:-0.15200989px;word-spacing:0px;writing-mode:lr-tb;text-anchor:start;fill:#4d4d4d;fill-opacity:1;stroke:none;font-family:Droid Sans;-inkscape-font-specification:Droid Sans"
         id="path3776"
         inkscape:connector-curvature="0" />
      <path
         d="m 148.14037,76.193912 c -0.42041,0 -0.80162,-0.04631 -1.14363,-0.138946 -0.34203,-0.09263 -0.65199,-0.213764 -0.92988,-0.363399 -0.27077,-0.15676 -0.51303,-0.338459 -0.72679,-0.545098 -0.20665,-0.206637 -0.39191,-0.423964 -0.55579,-0.65198 l -0.12826,0 c 0.0214,0.242267 0.0427,0.473844 0.0641,0.694733 0.0143,0.185262 0.0285,0.37765 0.0428,0.577162 0.0143,0.192388 0.0214,0.345585 0.0214,0.459593 l 0,5.012764 -1.94525,0 0,-16.994232 1.58185,0 0.27789,1.581853 0.0855,0 c 0.16388,-0.249381 0.34914,-0.480958 0.55579,-0.694733 0.20663,-0.220878 0.44533,-0.409702 0.71611,-0.566474 0.27788,-0.163874 0.58784,-0.292132 0.92987,-0.384775 0.34201,-0.09974 0.72679,-0.149623 1.15432,-0.149635 0.66979,1.2e-5 1.27902,0.12827 1.82769,0.384775 0.54865,0.256528 1.01536,0.641303 1.40015,1.154325 0.39189,0.505918 0.69472,1.136521 0.9085,1.891811 0.21375,0.755307 0.32063,1.631738 0.32064,2.629296 -10e-6,1.004696 -0.10689,1.888252 -0.32064,2.650673 -0.21378,0.755302 -0.51661,1.389467 -0.9085,1.902499 -0.38479,0.513034 -0.8515,0.901371 -1.40015,1.165013 -0.54867,0.256517 -1.1579,0.384775 -1.82769,0.384775 m -0.37408,-10.549249 c -0.54154,1e-5 -1.00114,0.08195 -1.37878,0.245828 -0.37053,0.163896 -0.67336,0.413287 -0.9085,0.748174 -0.22802,0.334906 -0.39903,0.751745 -0.51303,1.250519 -0.10689,0.49879 -0.16745,1.08664 -0.1817,1.763552 l 0,0.438216 c 0,0.719677 0.0463,1.360968 0.13895,1.923876 0.0998,0.555789 0.26363,1.026069 0.49165,1.410841 0.23514,0.377652 0.5451,0.666233 0.92988,0.865744 0.38477,0.192389 0.86573,0.288583 1.4429,0.288582 0.96193,10e-7 1.66735,-0.388336 2.11627,-1.165014 0.45602,-0.776672 0.68403,-1.891806 0.68404,-3.345405 -1e-5,-1.482089 -0.22802,-2.590098 -0.68404,-3.324029 -0.44892,-0.733913 -1.16146,-1.100874 -2.13764,-1.100884"
         style="font-size:21.88942528px;font-style:normal;font-variant:normal;font-weight:normal;font-stretch:normal;text-align:start;line-height:125%;letter-spacing:-0.15200989px;word-spacing:0px;writing-mode:lr-tb;text-anchor:start;fill:#4d4d4d;fill-opacity:1;stroke:none;font-family:Droid Sans;-inkscape-font-specification:Droid Sans"
         id="path3778"
         inkscape:connector-curvature="0" />
      <path
         d="m 162.84496,75.980148 0,-7.556554 c -10e-6,-0.926302 -0.18884,-1.621034 -0.56648,-2.084198 -0.37053,-0.463145 -0.95482,-0.694723 -1.75286,-0.694733 -0.57717,1e-5 -1.0617,0.09264 -1.4536,0.277893 -0.3919,0.185272 -0.70899,0.459602 -0.95125,0.822991 -0.23514,0.363408 -0.40615,0.808749 -0.51303,1.336025 -0.0998,0.527291 -0.14964,1.132955 -0.14964,1.816993 l 0,6.081583 -1.94525,0 0,-16.630833 1.94525,0 0,4.937947 -0.0855,1.5391 0.10688,0 c 0.17813,-0.306384 0.38833,-0.570026 0.6306,-0.790926 0.24939,-0.228004 0.52016,-0.416829 0.81231,-0.566475 0.29214,-0.149623 0.60209,-0.260067 0.92987,-0.331334 0.32777,-0.07124 0.66266,-0.10687 1.00469,-0.106882 1.30395,1.2e-5 2.2837,0.342034 2.93925,1.026067 0.66266,0.676929 0.994,1.763562 0.99401,3.2599 l 0,7.663436 -1.94525,0"
         style="font-size:21.88942528px;font-style:normal;font-variant:normal;font-weight:normal;font-stretch:normal;text-align:start;line-height:125%;letter-spacing:-0.15200989px;word-spacing:0px;writing-mode:lr-tb;text-anchor:start;fill:#4d4d4d;fill-opacity:1;stroke:none;font-family:Droid Sans;-inkscape-font-specification:Droid Sans"
         id="path3780"
         inkscape:connector-curvature="0" />
      <path
         d="m 68.110721,75.870888 1.282584,0 0,-17.710341 2.212456,0 0,17.710341 1.293272,0 0,-8.753632 c 0.43466,0.128264 0.954819,0.192393 1.560477,0.192387 0.676924,6e-6 1.293276,-0.08906 1.849058,-0.267205 0.548664,-0.185256 1.018944,-0.488088 1.410841,-0.908496 0.384778,-0.420395 0.684047,-0.972618 0.897809,-1.656671 0.213765,-0.684035 0.320647,-1.524839 0.320646,-2.522414 10e-7,-1.047431 -0.114006,-1.9203 -0.342023,-2.618608 -0.235138,-0.705407 -0.562909,-1.27188 -0.983314,-1.699423 -0.427524,-0.427512 -0.936995,-0.730344 -1.528412,-0.908497 -0.591408,-0.17812 -1.243388,-0.267188 -1.955939,-0.267205 l -6.017455,0 0,19.409764"
         style="font-size:21.88942528px;font-style:normal;font-variant:normal;font-weight:normal;font-stretch:normal;text-align:start;line-height:125%;letter-spacing:0px;word-spacing:0px;writing-mode:lr-tb;text-anchor:start;fill:#303030;fill-opacity:1;stroke:none;font-family:Droid Sans;-inkscape-font-specification:Droid Sans"
         id="path3763"
         inkscape:connector-curvature="0" />
    </g>
  </g>
</svg>
